<?xml version="1.0" standalone="no"?>
<!DOCTYPE svg PUBLIC "-//W3C//DTD SVG 20010904//EN"
 "http://www.w3.org/TR/2001/REC-SVG-20010904/DTD/svg10.dtd">
<svg version="1.0" xmlns="http://www.w3.org/2000/svg"
 width="89.000000pt" height="121.000000pt" viewBox="0 0 89.000000 121.000000"
 preserveAspectRatio="xMidYMid meet">
<metadata>
Created by potrace 1.16, written by Peter Selinger 2001-2019
</metadata>
<g transform="translate(0.000000,121.000000) scale(0.100000,-0.100000)"
fill="#000000" stroke="none">
<path d="M408 813 l-3 -328 -5 325 -5 325 -3 -312 -2 -313 -30 0 c-21 0 -43
-12 -73 -39 -42 -38 -42 -38 -74 -23 -25 12 -42 13 -70 6 -21 -5 -36 -13 -35
-17 2 -5 -7 -21 -21 -35 -55 -58 -55 -126 0 -194 24 -29 24 -31 4 -13 -13 11
-32 38 -42 60 -10 22 -19 34 -19 27 0 -21 20 -54 53 -90 30 -31 56 -44 41 -20
-4 7 -3 8 5 4 6 -4 9 -11 6 -16 -3 -5 26 -25 64 -45 77 -38 86 -41 75 -23 -4
8 -3 10 2 5 5 -5 9 -14 9 -20 0 -5 6 -12 14 -15 9 -3 11 0 6 8 -5 9 -4 11 4 6
6 -4 9 -11 6 -16 -3 -5 3 -14 14 -19 27 -15 31 -14 31 7 0 18 45 104 101 191
l34 54 5 291 6 291 2 -286 2 -285 -37 -60 c-53 -86 -103 -177 -103 -189 1 -5
18 22 39 60 20 39 54 97 74 129 l37 60 1 270 c1 149 1 275 0 279 -1 5 3 6 9 2
6 -3 8 -10 5 -15 -3 -5 18 -22 47 -37 70 -37 72 -38 63 -23 -6 9 -4 11 4 6 7
-5 10 -11 7 -14 -8 -8 35 -53 45 -46 11 7 36 -44 44 -91 4 -22 9 -48 11 -59 6
-33 12 -29 34 21 56 124 63 174 31 236 -12 24 -14 34 -6 27 22 -18 38 -79 33
-125 -3 -23 -17 -69 -32 -101 -14 -32 -19 -50 -11 -40 24 31 55 123 55 163 0
40 -31 114 -57 135 -14 11 -16 11 -8 -2 5 -9 5 -12 -1 -7 -5 5 -9 12 -9 15 0
13 -16 32 -26 32 -6 0 -7 -6 -3 -12 5 -9 2 -9 -9 1 -20 16 -23 26 -4 15 8 -5
8 -2 -2 9 -15 19 -36 23 -25 5 4 -7 3 -8 -5 -4 -6 4 -9 11 -6 16 3 5 -3 14
-14 19 -26 14 -34 14 -25 -1 4 -7 3 -8 -5 -4 -6 4 -9 11 -6 16 3 5 -3 14 -14
19 -26 14 -34 14 -25 -1 4 -8 3 -10 -2 -5 -5 5 -9 14 -9 19 0 6 -6 13 -14 16
-9 3 -11 0 -6 -8 5 -9 4 -11 -4 -6 -6 4 -9 11 -6 15 6 11 -40 53 -48 44 -4 -3
-12 8 -18 25 -10 29 -15 32 -55 32 l-44 0 -2 -327z m-26 -394 c33 -14 68 -70
67 -105 -1 -25 -2 -24 -9 10 -5 26 -19 50 -39 68 -33 29 -56 34 -81 18 -11 -7
-6 -8 17 -4 27 5 37 1 64 -25 27 -28 31 -37 26 -70 -2 -21 -23 -69 -46 -107
-22 -37 -41 -76 -41 -87 0 -10 -5 -17 -12 -15 -7 3 -13 10 -13 16 0 5 -4 14
-9 19 -5 5 -6 2 -1 -6 9 -16 9 -16 -70 26 -82 42 -108 72 -111 128 -3 39 1 47
33 75 29 26 42 31 72 28 25 -3 45 2 70 19 38 26 50 28 83 12z"/>
</g>
</svg>
